<svg xmlns="http://www.w3.org/2000/svg" xmlns:xlink="http://www.w3.org/1999/xlink" width="500" zoomAndPan="magnify" viewBox="0 0 375 374.999991" height="500" preserveAspectRatio="xMidYMid meet" version="1.0"><defs><g/></defs><rect x="-37.5" width="450" fill="#ffffff" y="-37.499999" height="449.999989" fill-opacity="1"/><rect x="-37.5" width="450" fill="#000000" y="-37.499999" height="449.999989" fill-opacity="1"/><g fill="#a27ed1" fill-opacity="1"><g transform="translate(86.99523, 252.374983)"><g><path d="M 30.796875 -50.46875 L 30.796875 0 L 16.6875 0 L 16.6875 -121.34375 L 49.96875 -121.34375 C 64.851562 -121.34375 75.847656 -118.492188 82.953125 -112.796875 C 90.066406 -107.097656 93.625 -98.519531 93.625 -87.0625 C 93.625 -71.019531 85.488281 -60.175781 69.21875 -54.53125 L 102.171875 0 L 85.484375 0 L 56.109375 -50.46875 Z M 30.796875 -62.578125 L 50.125 -62.578125 C 60.09375 -62.578125 67.398438 -64.554688 72.046875 -68.515625 C 76.691406 -72.472656 79.015625 -78.40625 79.015625 -86.3125 C 79.015625 -94.34375 76.648438 -100.128906 71.921875 -103.671875 C 67.191406 -107.210938 59.597656 -108.984375 49.140625 -108.984375 L 30.796875 -108.984375 Z M 30.796875 -62.578125 "/></g></g></g><g fill="#a27ed1" fill-opacity="1"><g transform="translate(192.07104, 252.374983)"><g><path d="M 104.328125 0 L 87.734375 0 L 43.484375 -58.84375 L 30.796875 -47.5625 L 30.796875 0 L 16.6875 0 L 16.6875 -121.34375 L 30.796875 -121.34375 L 30.796875 -61.171875 L 85.828125 -121.34375 L 102.5 -121.34375 L 53.703125 -68.640625 Z M 104.328125 0 "/></g></g></g><g fill="#69c7c7" fill-opacity="1"><g transform="translate(78.584846, 252.374983)"><g><path d="M 30.796875 -50.46875 L 30.796875 0 L 16.6875 0 L 16.6875 -121.34375 L 49.96875 -121.34375 C 64.851562 -121.34375 75.847656 -118.492188 82.953125 -112.796875 C 90.066406 -107.097656 93.625 -98.519531 93.625 -87.0625 C 93.625 -71.019531 85.488281 -60.175781 69.21875 -54.53125 L 102.171875 0 L 85.484375 0 L 56.109375 -50.46875 Z M 30.796875 -62.578125 L 50.125 -62.578125 C 60.09375 -62.578125 67.398438 -64.554688 72.046875 -68.515625 C 76.691406 -72.472656 79.015625 -78.40625 79.015625 -86.3125 C 79.015625 -94.34375 76.648438 -100.128906 71.921875 -103.671875 C 67.191406 -107.210938 59.597656 -108.984375 49.140625 -108.984375 L 30.796875 -108.984375 Z M 30.796875 -62.578125 "/></g></g></g><g fill="#69c7c7" fill-opacity="1"><g transform="translate(183.660656, 252.374983)"><g><path d="M 104.328125 0 L 87.734375 0 L 43.484375 -58.84375 L 30.796875 -47.5625 L 30.796875 0 L 16.6875 0 L 16.6875 -121.34375 L 30.796875 -121.34375 L 30.796875 -61.171875 L 85.828125 -121.34375 L 102.5 -121.34375 L 53.703125 -68.640625 Z M 104.328125 0 "/></g></g></g></svg>